# xmcd CD database file
#
# Track frame offsets:
#	180
#	19775
#	41633
#	59021
#	72456
#	92918
#	115877
#	133959
#	152685
#	178279
#	199601
#	221507
#
# Disc length: 3207 seconds
#
# Revision: 0
# Processed by: cddbd v1.5.1PL0 Copyright (c) Steve Scherf et al.
# Submitted via: CDex 1.51
#
DISCID=b80c850c
DTITLE=Guitar Gabriel - Deep in the South
DYEAR=1900
DGENRE=Blues
TTITLE0=Came So Far
TTITLE1=Expressin' the Blues
TTITLE2=Ain't Gonna Let No Woman
TTITLE3=Betty and de Prit
TTITLE4=Old Fashioned Love
TTITLE5=Southland Blues
TTITLE6=Down on the Farm
TTITLE7=Miss You Like the Devil
TTITLE8=Sweet Little Angel
TTITLE9=I'm Mixed Up
TTITLE10=Make the Best of Your Knowin'
TTITLE11=Juice Headed Woman
EXTD=
EXTT0=
EXTT1=
EXTT2=
EXTT3=
EXTT4=
EXTT5=
EXTT6=
EXTT7=
EXTT8=
EXTT9=
EXTT10=
EXTT11=
PLAYORDER=
